<svg width="800" height="800" xmlns="http://www.w3.org/2000/svg" version="1.1" enable-background="new 0 0 122.88 92.126" xml:space="preserve">
 <g>
  <title>Layer 1</title>
  <ellipse fill="#dc3545" cx="399.99999" cy="399.99999" id="svg_3" rx="353.49999" ry="353.49999"/>

  <path fill="#ffffff" fill-rule="evenodd" d="m477.01435,364.96599a22.93578,22.93578 0 1 1 -22.96002,22.93578a22.91153,22.91153 0 0 1 22.96002,-22.93578zm18.15951,-53.8724l0,-7.2735l-225.11488,0l0,161.20504l10.74054,0l0,19.05657l-13.0923,0a16.65632,16.65632 0 0 1 -11.78307,-4.849a16.51085,16.51085 0 0 1 -4.849,-11.75883l0,-165.93282a16.72905,16.72905 0 0 1 16.63207,-16.70481l229.81841,0a16.72905,16.72905 0 0 1 16.70481,16.70481l0,9.55253l-19.05657,0zm22.20843,185.13486l-39.76181,-63.49767a9.11612,9.11612 0 0 0 -15.44407,0l-18.76563,30.23352l20.41429,33.26415l-8.38877,0l-55.76351,-88.93068a10.59507,10.59507 0 0 0 -17.9413,0l-54.43004,88.93068l-7.63718,0l0,-146.34285l210.15571,0l0,146.34285l-12.43769,0zm14.86219,18.93535l-214.93197,0a16.7533,16.7533 0 0 1 -16.70481,-16.68056l0,-150.9494a16.7533,16.7533 0 0 1 16.70481,-16.63207l214.93197,0a16.72905,16.72905 0 0 1 16.68056,16.68056l0,151.04638a16.7533,16.7533 0 0 1 -16.68056,16.53509z" class="cls-1"/>
 </g>

</svg>