<svg width="512" height="512" xmlns="http://www.w3.org/2000/svg">

 <g>
  <title>Layer 1</title>
  <ellipse ry="256" rx="256" id="svg_3" cy="256" cx="256" fill="#dc3545"/>
  <path id="svg_1" d="m395.02483,286.9754c-4.26904,21.96247 -38.23513,45.99823 -77.24522,50.65643c-20.34208,2.42723 -40.37048,4.6582 -61.72741,3.67858c-34.92725,-1.60026 -62.48728,-8.33678 -62.48728,-8.33678c0,3.40013 0.20968,6.63755 0.62903,9.6653c4.54078,34.46932 34.17912,36.53422 62.25412,37.49706c28.33667,0.96955 53.56843,-6.98646 53.56843,-6.98646l1.16413,25.61757s-19.8204,10.64323 -55.12843,12.60078c-19.46982,1.07019 -43.64481,-0.48981 -71.80199,-7.94259c-61.06818,-16.16363 -71.57051,-81.25929 -73.17748,-147.30941c-0.48981,-19.61073 -0.18787,-38.10261 -0.18787,-53.56843c0,-67.53967 44.25204,-87.33659 44.25204,-87.33659c22.31305,-10.24736 60.60018,-14.55666 100.4037,-14.88208l0.97794,0c39.80352,0.32542 78.11581,4.63471 100.42718,14.88208c0,0 44.25036,19.79692 44.25036,87.33659c0,0 0.55523,49.83114 -6.17123,84.42794" fill="#ffffff"/>
  <path id="svg_2" d="m348.99957,207.78705l0,81.77929l-32.39938,0l0,-79.37555c0,-16.73227 -7.04013,-25.22505 -21.12208,-25.22505c-15.56982,0 -23.37318,10.07459 -23.37318,29.99564l0,43.44687l-32.20816,0l0,-43.44687c0,-19.92105 -7.80504,-29.99564 -23.37486,-29.99564c-14.08195,0 -21.12208,8.49278 -21.12208,25.22505l0,79.37555l-32.39938,0l0,-81.77929c0,-16.71382 4.25562,-29.99564 12.80375,-39.82197c8.81485,-9.82633 20.35886,-14.86363 34.68906,-14.86363c16.57963,0 29.13512,6.37252 37.43668,19.11924l8.07007,13.5284l8.07175,-13.5284c8.29988,-12.74672 20.85537,-19.11924 37.43668,-19.11924c14.32853,0 25.87254,5.03729 34.68906,14.86363c8.54646,9.82633 12.80208,23.10815 12.80208,39.82197" fill="#dc3545"/>
 </g>
</svg>