<svg width="800" height="800" xmlns="http://www.w3.org/2000/svg" xml:space="preserve" enable-background="new 0 0 122.88 92.126" version="1.1">

 <g>
  <title>Layer 1</title>
  <ellipse ry="353.49999" rx="353.49999" id="svg_3" cy="399.99999" cx="399.99999" fill="#dc3545"/>
  <path fill="#ffffff" stroke="#ffffff" id="svg_2" d="m264.75626,287.58649l126.95359,0c9.46399,0 17.20015,7.73616 17.20015,17.20015l0,12.82202l127.26597,0c7.57021,0 13.76402,6.18649 13.76402,13.7567l0,167.28901c0,7.56777 -6.19381,13.75914 -13.76402,13.75914l-29.81961,0l0,-26.01986l-36.78216,0l0,26.01986l-134.87767,0l0,-26.01986l-36.7846,0l0,26.01986l-31.5938,0c-7.56533,0 -16.25814,-6.19137 -16.25814,-13.75914c0,-67.99525 0,-130.01145 0,-196.36917c0,-8.08514 6.61112,-14.69871 14.69627,-14.69871l0,0zm158.04955,68.2637l105.73162,0l0,15.59435l-105.73162,0l0,-15.59435l0,0zm0,40.69661l105.73162,0l0,15.59435l-105.73162,0l0,-15.59435l0,0zm0,40.69661l105.73162,0l0,15.58946l-105.73162,0l0,-15.58946l0,0zm-150.57207,15.58946l0,-19.99688c10.70128,-4.75884 43.46405,-13.59319 45.00884,-26.69342c0.35386,-2.95536 -6.62577,-14.45467 -8.22425,-19.86266c-2.00847,-3.20428 -3.09446,-4.34885 -3.03833,-8.2999c0.02684,-2.22567 0.06101,-4.41718 0.38071,-6.55743c0.40511,-2.73572 0.32702,-2.81626 1.75467,-5.01996c1.48866,-2.28912 0.85171,-10.63539 0.85171,-13.78843c0,-31.36196 54.9536,-31.37172 54.9536,0c0,3.9657 -0.91272,11.25038 1.23974,14.37169c1.05183,1.51551 0.86391,1.69366 1.21045,3.55327c0.46612,2.42335 0.49785,4.9077 0.53689,7.44331c0.05125,3.95106 -1.02986,5.09806 -3.03833,8.2999c-1.9499,5.67888 -9.35905,16.41433 -8.72698,19.6357c2.35746,11.96299 32.75057,19.99932 42.31949,24.25543l0,22.65939l-125.22821,0l0,0zm221.56417,59.58065l-11.36264,0l0,-12.26316l11.36264,0l0,12.26316l0,0zm-171.66226,0l-11.36752,0l0,-12.26316l11.36752,0l0,12.26316l0,0z" clip-rule="evenodd" fill-rule="evenodd"/>
 </g>
</svg>