<svg width="512" height="512" xmlns="http://www.w3.org/2000/svg">
 <g>
  <title>Layer 1</title>
  <ellipse ry="256" rx="256" id="svg_3" cy="256" cx="256" fill="#dc3545"/>
  <g>
   <path fill="#ffffff" d="m163.09737,131.03977c37.60481,28.23132 78.05305,85.47267 92.9036,116.1917c14.85168,-30.71677 55.29766,-87.96095 92.9036,-116.1917c27.13364,-20.37059 71.09715,-36.13219 71.09715,14.02206c0,10.01649 -5.74285,84.14369 -9.11109,96.17796c-11.70796,41.83942 -54.37134,52.51078 -92.32111,46.05198c66.33548,11.29004 83.21059,48.68673 46.76679,86.08343c-69.21397,71.02363 -99.48059,-17.8201 -107.23952,-40.5851c-1.42172,-4.17337 -2.08699,-6.12571 -2.09678,-4.46557c-0.00984,-1.6602 -0.67506,0.2922 -2.09678,4.46557c-7.75554,22.765 -38.02159,111.61099 -107.23952,40.5851c-36.44436,-37.3967 -19.56981,-74.79565 46.76679,-86.08343c-37.9509,6.4588 -80.61485,-4.21261 -92.32111,-46.05198c-3.36835,-12.03539 -9.11109,-86.1626 -9.11109,-96.17796c0,-50.15426 43.96464,-34.39265 71.09715,-14.02206l0.00192,0z"/>
  </g>
 </g>

</svg>