<svg width="512" height="512" xmlns="http://www.w3.org/2000/svg" version="1.1">
 <title id="title833">Google Scholar</title>
 <g>
  <title>Layer 1</title>
  <ellipse stroke-width="0" ry="256" rx="256" id="svg_2" cy="256" cx="256" stroke="#000" fill="#dc3545"/>
  <g  id="layer6" >
   <path stroke-width="0.06479" id="path2" fill="white" d="m375.46464,138.44127l0,-21.43724l15.55901,-12.14668l-168.37459,0l-101.67272,88.38193l67.42858,0c-0.12228,1.67276 -0.17251,3.18536 -0.17251,4.90082c0,16.40899 5.68296,29.98184 17.06025,40.82496c11.3773,10.86103 25.38822,16.25401 41.9787,16.25401c3.87554,0 7.67568,-0.28964 11.36594,-0.80624c-2.28857,5.11745 -3.44367,9.85814 -3.44367,14.28163c0,7.77382 3.54181,16.08284 10.60136,24.90847c-30.88488,2.10222 -53.57781,7.66155 -68.04334,16.65972c-8.29008,5.11608 -14.95699,11.57498 -19.98732,19.31092c-5.03067,7.79277 -7.53962,16.14963 -7.53962,25.16022c0,7.59509 1.6235,14.43421 4.89566,20.5163c3.27215,6.08215 7.53962,11.07629 12.841,14.94429c5.28862,3.91067 11.39001,7.16423 18.27803,9.81541c6.87564,2.63223 13.70237,4.50167 20.5153,5.55967c6.79124,1.0566 13.54357,1.57322 20.23563,1.57322c10.60271,0 21.21786,-1.36523 31.91874,-4.08327c10.67575,-2.74309 20.68782,-6.80255 30.0483,-12.19587c9.3357,-5.35681 16.93699,-12.66331 22.76736,-21.81988c5.81761,-9.1945 8.73366,-19.52652 8.73366,-30.96546c0,-8.67168 -1.77092,-16.56155 -5.31377,-23.72682c-3.51772,-7.14151 -7.82309,-13.02111 -12.9516,-17.58925c-5.11744,-4.57571 -10.23352,-8.78154 -15.36233,-12.56995c-5.11746,-3.8139 -9.44658,-7.67567 -12.96429,-11.66074c-3.53044,-3.97267 -5.30136,-7.91467 -5.30136,-11.79539c0,-3.87417 1.36518,-7.61368 4.10595,-11.22989c2.71939,-3.6286 6.04079,-7.12256 9.92635,-10.47427c3.88685,-3.34516 7.77379,-7.05953 11.64794,-11.12553c3.87419,-4.05187 7.19559,-9.31054 9.92638,-15.7505c2.74314,-6.43858 4.09595,-13.73264 4.09595,-21.85018c0,-10.58998 -2.00511,-19.25546 -5.94128,-26.22442c-0.46735,-0.80486 -0.95847,-1.41962 -1.47609,-2.37912l44.79762,-36.74037l0,13.47573c-5.82035,0.73185 -5.2146,4.20824 -5.2146,8.37204l0,101.28699c0,4.6904 3.83769,8.5284 8.52843,8.5284l3.1399,0c4.69042,0 8.52843,-3.83765 8.52843,-8.5284l0,-101.28699c0,-4.15382 0.61198,-7.62641 -5.16536,-8.36826l-0.00006,0zm-84.51396,175.13554c0.89819,0.59064 2.91572,2.18901 6.07593,4.75342c3.18777,2.55304 5.35061,4.48376 6.50675,5.83656c1.1324,1.30975 2.81755,3.2787 5.01933,5.94128c2.21415,2.65633 3.71433,4.96247 4.50163,6.87561c0.78733,1.94966 1.58702,4.29882 2.3981,7.04196c0.77592,2.71181 1.16888,5.49148 1.16888,8.31418c0,13.42031 -5.1667,23.36419 -15.47326,29.80277c-10.33202,6.43996 -22.64504,9.66186 -36.9494,9.66186c-7.23209,0 -14.32951,-0.86032 -21.30361,-2.51519c-6.96139,-1.66623 -13.62797,-4.20066 -19.98732,-7.55859c-6.35937,-3.35168 -11.47546,-8.03211 -15.35099,-14.0095c-3.88692,-6.01431 -5.83037,-12.92163 -5.83037,-20.66374c0,-8.12409 2.20174,-15.18501 6.63007,-21.18035c4.40316,-6.00291 10.18461,-10.54212 17.34368,-13.63071c7.13393,-3.10615 14.366,-5.30756 21.69658,-6.61113c7.33058,-1.34005 14.79686,-2.0113 22.38676,-2.0113c3.5177,0 6.24709,0.19771 8.19055,0.54795c0.35783,0.17254 2.3867,1.6297 6.08866,4.37941c3.703,2.72558 6.00292,4.40454 6.88838,5.0255l-0.00036,0zm-2.6436,-79.17506c-5.83039,6.97412 -13.96065,10.46049 -24.36674,10.46049c-9.33568,0 -17.55275,-3.75087 -24.61228,-11.26639c-7.08469,-7.49659 -12.14049,-16.00225 -15.22769,-25.52942c-3.09962,-9.53199 -4.64909,-18.88042 -4.64909,-28.06215c0,-10.78009 2.83032,-19.957 8.48674,-27.53314c5.65783,-7.59612 13.77535,-11.40243 24.35433,-11.40243c9.34807,0 17.61302,3.96612 24.74728,11.93143c7.15908,7.93878 12.28791,16.85637 15.36373,26.73965c3.08721,9.87088 4.62359,19.30988 4.62359,28.32665c0,10.58517 -2.91466,19.3729 -8.71954,26.33532l-0.00033,0z"/>
  </g>
 </g>
</svg>