<svg width="512" height="512" xmlns="http://www.w3.org/2000/svg">
 <g>
  <title>Layer 1</title>
  <ellipse fill="#dc3545" cx="256" cy="256" id="svg_3" rx="256" ry="256"/>
  <g>
   <path stroke-width="0" fill="#dc3545" d="m406.76823,248.1556c0,-82.55654 -67.33653,-149.48213 -150.39947,-149.48213c-83.06295,0 -150.39923,66.92559 -150.39923,149.48213c0,82.55654 67.33628,149.48238 150.39923,149.48238c83.06295,0 150.39947,-66.92584 150.39947,-149.48238zm-318.11085,0c0,-92.05964 75.08725,-166.68875 167.71138,-166.68875c92.62413,0 167.71138,74.62911 167.71138,166.68875c0,92.05964 -75.08725,166.68875 -167.71138,166.68875c-92.62413,0 -167.71138,-74.62911 -167.71138,-166.68875z"/>
   <path fill="#ffffff" d="m256.36876,398.48227c83.58817,0 151.34929,-67.3038 151.34929,-150.32666c0,-83.02286 -67.76112,-150.32666 -151.34929,-150.32666c-83.58817,0 -151.34929,67.3038 -151.34929,150.32666c0,83.02286 67.76112,150.32666 151.34929,150.32666z"/>
   <path fill="white" d="m217.26174,397.39746c11.93696,-17.226 11.09104,-30.15369 -5.28741,-46.26134c-16.37845,-16.10356 -25.91182,-39.66333 -25.91182,-39.66333c0,0 -3.56121,-13.68361 -11.67271,-12.42455c-8.11069,1.25906 -14.06648,21.70758 2.9239,34.21721c16.98957,12.50554 -3.38368,21.00319 -9.92033,9.25767c-6.53665,-11.74634 -24.38523,-41.94257 -33.64127,-47.71757c-9.25219,-5.775 -15.76708,-2.5394 -13.58536,9.36402c2.1818,11.90424 40.8765,40.75632 37.11158,47.00009c-3.76492,6.2405 -17.03293,-7.33676 -17.03293,-7.33676c0,0 -41.51887,-37.17875 -50.55827,-27.49076c-9.03932,9.68881 6.8576,17.80686 29.51238,31.30231c22.6592,13.49136 24.41567,17.05502 21.20134,22.15999c-3.21842,5.10415 -53.22946,-36.38519 -57.92694,-18.79676c-4.69322,17.58842 51.0394,22.69339 47.59976,34.8357c-3.43964,12.14721 -39.25878,-22.983 -46.58482,-9.2953c-7.33038,13.69179 50.54469,29.77818 51.01346,29.89762c18.6945,4.772 66.17318,14.88295 82.75943,-9.04823z"/>
   <path fill="#dc3545" d="m126.28486,275.35757c-6.96951,0 -13.19864,2.84455 -17.5422,8.00433c-2.68625,3.19552 -5.493,8.3463 -5.72117,16.05939c-2.92292,-0.83447 -5.73401,-1.30079 -8.35996,-1.30079c-6.67254,0 -12.69927,2.54103 -16.9611,7.15759c-5.47574,5.92471 -7.90796,13.20584 -6.84901,20.49106c0.50371,3.46958 1.67032,6.58001 3.41379,9.45892c-3.67632,2.95581 -6.38408,7.07169 -7.6928,12.02122c-1.02451,3.88027 -2.07488,11.9615 3.40945,20.28653c-0.34868,0.54322 -0.67584,1.10771 -0.98148,1.68529c-3.29753,6.22005 -3.50844,13.24838 -0.59836,19.79403c4.41245,9.92033 15.37684,17.7365 36.66858,26.12616c13.24601,5.21869 25.36418,8.55573 25.47176,8.58519c17.51185,4.51348 33.34953,6.80663 47.06014,6.80663c25.20088,0 43.24254,-7.67055 53.62592,-22.79729c16.71142,-24.35905 14.32173,-46.63849 -7.30076,-68.11454c-11.96805,-11.88378 -19.92329,-29.40676 -21.58077,-33.25267c-3.34032,-11.38801 -12.17421,-24.04654 -26.85755,-24.04654l-0.00409,0c-1.23616,0 -2.48458,0.09817 -3.71501,0.29125c-6.43194,1.00463 -12.05395,4.68447 -16.07002,10.21976c-4.33513,-5.35613 -8.5451,-9.61682 -12.35501,-12.02122c-5.74309,-3.61929 -11.48128,-5.4543 -17.06034,-5.4543zm0,17.11229c2.19546,0 4.87737,0.92773 7.83458,2.79301c9.1824,5.78809 26.9009,36.05549 33.38847,47.82801c2.1737,3.94408 5.88953,5.61301 9.23394,5.61301c6.6381,0 11.82079,-6.55792 0.60703,-14.89195c-16.86195,-12.53908 -10.94705,-33.03423 -2.89691,-34.29657c0.3526,-0.05563 0.70112,-0.08099 1.03736,-0.08099c7.31794,0 10.547,12.53418 10.547,12.53418c0,0 9.46138,23.61458 25.71711,39.75578c16.25491,16.14447 17.09429,29.10242 5.24732,46.36851c-8.08042,11.77334 -23.5475,13.30892 -39.39827,13.30892c-16.43981,0 -33.32221,-2.87973 -42.76722,-5.31441c-0.46468,-0.11944 -57.87523,-15.16847 -50.60008,-28.89217c1.22258,-2.30624 3.23724,-3.22988 5.77279,-3.22988c10.24553,0 28.88121,15.15293 36.89249,15.15293c1.79083,0 3.12532,-1.37687 3.64187,-3.22497c3.56481,-12.75425 -51.97662,-16.66806 -47.31449,-34.29739c0.82219,-3.11861 3.0521,-4.38504 6.1861,-4.38095c13.53873,0 43.91363,23.66121 50.28085,23.66121c0.48595,0 0.83447,-0.14071 1.02427,-0.44014c3.18979,-5.11642 1.72047,-9.28221 -20.76349,-22.80466c-22.48412,-13.52735 -38.54433,-21.07028 -29.56874,-30.78117c1.0331,-1.12162 2.49677,-1.61739 4.27468,-1.61739c13.65064,0.00409 45.90211,29.17114 45.90211,29.17114c0,0 8.70463,8.99669 13.96995,8.99669c1.20916,0 2.23833,-0.4745 2.93536,-1.64684c3.73219,-6.25441 -34.66668,-35.17358 -36.83204,-47.10481c-1.46792,-8.08532 1.02885,-12.17912 5.64795,-12.17912z"/>
   <path fill="white" d="m294.73785,397.39746c-11.93614,-17.226 -11.09104,-30.15369 5.28741,-46.26134c16.37845,-16.10356 25.91263,-39.66333 25.91263,-39.66333c0,0 3.56121,-13.68361 11.67189,-12.42455c8.1115,1.25906 14.06648,21.70758 -2.92309,34.21721c-16.99039,12.50554 3.38286,21.00319 9.91951,9.25767c6.53665,-11.74634 24.38523,-41.94257 33.64208,-47.71757c9.25194,-5.775 15.76651,-2.5394 13.58462,9.36402c-2.18188,11.90424 -40.87658,40.75632 -37.11166,47.00009c3.76492,6.2405 17.03375,-7.33676 17.03375,-7.33676c0,0 41.51879,-37.17875 50.55803,-27.49076c9.03923,9.68881 -6.85817,17.80686 -29.51229,31.30231c-22.65985,13.49136 -24.41632,17.05502 -21.20199,22.15999c3.21842,5.10415 53.22995,-36.38519 57.92751,-18.79676c4.69265,17.58842 -51.03989,22.69339 -47.59976,34.8357c3.43931,12.14721 39.25837,-22.983 46.58449,-9.2953c7.33021,13.69179 -50.54494,29.77818 -51.01371,29.89762c-18.6945,4.772 -66.17236,14.88295 -82.75943,-9.04823z"/>
   <path stroke-width="0" fill="#dc3545" d="m385.71514,275.35757c6.96943,0 13.19848,2.84455 17.54179,8.00433c2.68665,3.19552 5.49357,8.3463 5.72182,16.05939c2.92227,-0.83447 5.73327,-1.30079 8.35939,-1.30079c6.67246,0 12.69943,2.54103 16.96094,7.15759c5.47639,5.92471 7.90861,13.20584 6.84917,20.49106c-0.50313,3.46958 -1.66975,6.58001 -3.41395,9.45892c3.67656,2.95581 6.38449,7.07169 7.69345,12.02122c1.02427,3.88027 2.07471,11.9615 -3.40986,20.28653c0.34851,0.54322 0.67575,1.10771 0.98173,1.68529c3.29778,6.22005 3.50803,13.24838 0.59803,19.79403c-4.41204,9.92033 -15.37627,17.7365 -36.66825,26.12616c-13.24593,5.21869 -25.36451,8.55573 -25.47168,8.58519c-17.51234,4.51348 -33.35002,6.80663 -47.06063,6.80663c-25.20088,0 -43.24254,-7.67055 -53.6251,-22.79729c-16.71142,-24.35905 -14.32255,-46.63849 7.30076,-68.11454c11.96723,-11.88378 19.92248,-29.40676 21.57995,-33.25267c3.34032,-11.38801 12.17421,-24.04654 26.85836,-24.04654l0.00409,0c1.23534,0 2.48376,0.09817 3.71501,0.29125c6.43112,1.00463 12.05313,4.68447 16.07002,10.21976c4.33513,-5.35613 8.5451,-9.61682 12.35501,-12.02122c5.74227,-3.61929 11.48046,-5.4543 17.05993,-5.4543zm0,17.11229c-2.19579,0 -4.87754,0.92773 -7.83498,2.79301c-9.1824,5.78809 -26.9009,36.05549 -33.38847,47.82801c-2.1737,3.94408 -5.88871,5.61301 -9.23394,5.61301c-6.6381,0 -11.82079,-6.55792 -0.60703,-14.89195c16.86277,-12.53908 10.94787,-33.03423 2.89773,-34.29657c-0.35342,-0.05563 -0.70193,-0.08099 -1.03736,-0.08099c-7.31876,0 -10.547,12.53418 -10.547,12.53418c0,0 -9.46219,23.61458 -25.71711,39.75578c-16.25573,16.14447 -17.09511,29.10242 -5.24814,46.36851c8.08042,11.77334 23.5475,13.30892 39.39827,13.30892c16.43981,0 33.32221,-2.87973 42.76722,-5.31441c0.46468,-0.11944 57.87597,-15.16847 50.60057,-28.89217c-1.22307,-2.30624 -3.23724,-3.22988 -5.77336,-3.22988c-10.24512,0 -28.88072,15.15293 -36.89241,15.15293c-1.79083,0 -3.12516,-1.37687 -3.64138,-3.22497c-3.5653,-12.75425 51.97662,-16.66806 47.31424,-34.29739c-0.82219,-3.11861 -3.05235,-4.38504 -6.18569,-4.38095c-13.53881,0 -43.9142,23.66121 -50.28069,23.66121c-0.48677,0 -0.83528,-0.14071 -1.02508,-0.44014c-3.18979,-5.11642 -1.72047,-9.28221 20.76349,-22.80466c22.48478,-13.52735 38.54498,-21.07028 29.56874,-30.78117c-1.03245,-1.12162 -2.49685,-1.61739 -4.27459,-1.61739c-13.65007,0.00409 -45.90219,29.17114 -45.90219,29.17114c0,0 -8.70463,8.99669 -13.96913,8.99669c-1.20998,0 -2.23833,-0.4745 -2.93618,-1.64684c-3.73219,-6.25441 34.66717,-35.17358 36.83269,-47.10481c1.46768,-8.08532 -1.02918,-12.17912 -5.64819,-12.17912z"/>
   <path fill="#dc3545" d="m313.04457,254.00587c0,-19.36044 -25.10926,10.14695 -56.15468,10.27866c-31.04297,-0.13008 -56.15222,-29.63746 -56.15222,-10.27866c0,12.83606 6.14151,33.71244 22.63613,46.37833c3.28223,-11.29311 21.31734,-20.33971 23.89519,-19.04056c3.67083,1.84973 3.46467,6.97598 9.62091,11.49273c6.15705,-4.51675 5.95089,-9.64136 9.62172,-11.49273c2.57948,-1.29915 20.61296,7.74745 23.89437,19.04056c16.49462,-12.66589 22.63695,-33.54228 22.63695,-46.3767l0.00164,-0.00164z"/>
   <path fill="#dc3545" d="m356.99558,227.08942c7.68118,0 13.90777,-6.22659 13.90777,-13.90777c0,-7.68118 -6.22659,-13.90777 -13.90777,-13.90777c-7.68118,0 -13.90777,6.22659 -13.90777,13.90777c0,7.68118 6.22659,13.90777 13.90777,13.90777z"/>
   <path fill="#dc3545" d="m156.56004,227.08942c7.68118,0 13.90777,-6.22659 13.90777,-13.90777c0,-7.68118 -6.22659,-13.90777 -13.90777,-13.90777c-7.68118,0 -13.90777,6.22659 -13.90777,13.90777c0,7.68118 6.22659,13.90777 13.90777,13.90777z"/>
   <path fill="#dc3545" d="m307.95841,207.1244c5.51075,1.94054 7.70327,13.23938 13.27047,10.28766c10.54209,-5.59092 14.54508,-18.64787 8.93943,-29.16296c-5.60565,-10.51509 -18.69696,-14.50663 -29.23986,-8.9157c-10.54291,5.59092 -14.54508,18.64705 -8.93943,29.16215c2.64575,4.96344 11.04359,-3.10634 15.9694,-1.37114z"/>
   <path fill="#dc3545" d="m206.09952,207.1244c-5.51075,1.94054 -7.70327,13.23938 -13.26965,10.28766c-10.54291,-5.59092 -14.54508,-18.64787 -8.93943,-29.16296c5.60565,-10.51509 18.69614,-14.50663 29.23905,-8.9157c10.54291,5.59092 14.54508,18.64705 8.93943,29.16215c-2.64575,4.96344 -11.04359,-3.10634 -15.9694,-1.37114z"/>
  </g>
 </g>

</svg>