<svg width="512" height="512" xmlns="http://www.w3.org/2000/svg" xml:space="preserve" version="1.1">

 <g>
  <title>Layer 1</title>
  <g id="svg_1">
   <path id="svg_2" d="m296.04976,186.02665l-47.44533,0l0,158.72l49.03822,0c69.74578,0 85.78844,-53.02044 85.78844,-79.41689c0,-42.89422 -27.42044,-79.30311 -87.38133,-79.30311zm-40.04978,-186.02666c-141.42577,0 -255.99999,114.57422 -255.99999,255.99999s114.57422,255.99999 255.99999,255.99999s255.99999,-114.57422 255.99999,-255.99999s-114.57422,-255.99999 -255.99999,-255.99999zm-83.39911,372.39466l-30.83378,0l0,-214.24355l30.83378,0l0,214.24355zm-15.36,-238.59199c-11.15022,0 -20.25244,-8.98844 -20.25244,-20.25244s8.98844,-20.25244 20.25244,-20.25244c11.15022,0 20.25244,8.98844 20.25244,20.25244l0,0c-0.11378,11.15022 -9.10222,20.25244 -20.25244,20.25244l0,0zm144.15644,238.81955l-83.62666,0l0,-214.47111l83.17155,0c79.18933,0 114.00533,56.54755 114.00533,107.17866c0,55.06844 -42.89422,107.29244 -113.55022,107.29244z" fill="#dc3545"/>
  </g>
 </g>
</svg>