<?xml version="1.0" encoding="utf-8"?>
<!-- Generator: Adobe Illustrator 24.2.2, SVG Export Plug-In . SVG Version: 6.00 Build 0)  -->
<svg version="1.1"
	 id="Layer_1" image-rendering="optimizeQuality" shape-rendering="geometricPrecision" text-rendering="geometricPrecision"
	 xmlns="http://www.w3.org/2000/svg" xmlns:xlink="http://www.w3.org/1999/xlink" x="0px" y="0px" viewBox="0 0 32 32"
	 style="enable-background:new 0 0 32 32;" xml:space="preserve">
<style type="text/css">
	.st0{fill-rule:evenodd;clip-rule:evenodd;fill:#dc3545;}
	.st1{fill-rule:evenodd;clip-rule:evenodd;fill:#FFFFFF;}
</style>
<text transform="matrix(1 0 0 1 562.5 1218)"><tspan x="0" y="0" style="font-family:'MyriadPro-Regular'; font-size:12px; letter-spacing:33;">	</tspan><tspan x="36" y="0" style="font-family:'MyriadPro-Regular'; font-size:12px;">// filter: saturate(100%) invert(30%) sepia(52%) saturate(5779%) hue-rotate(339deg) brightness(93%) contrast(85%);</tspan></text>
<g>
	<path class="st0" d="M32,16c0,8.8-7.2,16-16,16C7.2,32,0,24.8,0,16s7.2-16,16-16C24.9-0.1,32,7.1,32,16z M17.2,23
		c-1.4-0.3-2.3-1.1-4.4-4.3c-0.7-1.1-0.7-1.1-1.4-1.1c-1-0.1-0.9-0.2-0.9,2c0,2.6,0,2.5,1.5,2.8c0.4,0.1,0.4,0.1,0.4,0.3
		c0,0.3,0,0.3-2.6,0.3c-2.5,0-2.6,0-2.7-0.1c-0.1-0.3,0.1-0.4,0.6-0.5c0.6-0.1,0.9-0.4,1-0.8c0-0.2,0.1-2.3,0-4.8
		c0-5.2,0-4.9-0.9-5.1C7.2,11.4,7,11.3,7.1,11c0.1-0.2,0.2-0.2,2.9-0.2c4.1-0.1,4.8,0.1,5.9,1c1.1,1,1.3,2.6,0.4,3.8
		c-0.4,0.6-1.2,1.2-1.8,1.4c-0.3,0.1-0.5,0.2-0.5,0.3c0,0.1,0.9,1.4,1.5,2.1c1.5,1.9,2.3,2.6,3.2,2.8c0.5,0.1,0.7,0.3,0.5,0.5
		C19,23.1,18.2,23.2,17.2,23z M13.4,16.3c2-0.8,2.1-3.6,0.2-4.4c-0.5-0.2-0.6-0.2-1.9-0.2c-1.3,0-1.3,0-1.4,2.3c0,1.3,0,2.4,0,2.4
		C10.6,16.7,12.8,16.6,13.4,16.3z M20.4,13.5c-1.5-0.3-2.1-1.2-2-3.7c0-1.4,0.1-1.7,0.7-2.3c0.9-1,3.2-0.9,4,0.2
		c0.4,0.4,0.3,0.6-0.2,0.7c-0.4,0.1-0.4,0.1-0.8-0.2c-0.9-0.8-2.3-0.5-2.6,0.5c-0.1,0.5-0.1,2.5,0,2.9c0.4,1.3,2.5,1.3,2.8,0
		c0.2-0.8,0.2-0.9-0.8-0.9c-0.5,0-0.5,0-0.5-0.4c0-0.4,0-0.4,1.1-0.4c1.5,0,1.4-0.1,1.4,1c-0.1,1.3-0.5,2-1.3,2.4
		C21.8,13.5,21,13.6,20.4,13.5z"/>
	<path class="st1" d="M17.2,23c-1.4-0.3-2.3-1.1-4.4-4.3c-0.7-1.1-0.7-1.1-1.4-1.1c-1-0.1-0.9-0.2-0.9,2c0,2.6,0,2.5,1.5,2.8
		c0.4,0.1,0.4,0.1,0.4,0.3c0,0.3,0,0.3-2.6,0.3c-2.5,0-2.6,0-2.7-0.1c-0.1-0.3,0.1-0.4,0.6-0.5c0.6-0.1,0.9-0.4,1-0.8
		c0-0.2,0.1-2.3,0-4.8c0-5.2,0-4.9-0.9-5.1C7.2,11.4,7,11.3,7.1,11c0.1-0.2,0.2-0.2,2.9-0.2c4.1-0.1,4.8,0.1,5.9,1
		c1.1,1,1.3,2.6,0.4,3.8c-0.4,0.6-1.2,1.2-1.8,1.4c-0.3,0.1-0.5,0.2-0.5,0.3c0,0.1,0.9,1.4,1.5,2.1c1.5,1.9,2.3,2.6,3.2,2.8
		c0.5,0.1,0.7,0.3,0.5,0.5C19,23.1,18.2,23.2,17.2,23z M13.4,16.3c2-0.8,2.1-3.6,0.2-4.4c-0.5-0.2-0.6-0.2-1.9-0.2
		c-1.3,0-1.3,0-1.4,2.3c0,1.3,0,2.4,0,2.4C10.6,16.7,12.8,16.6,13.4,16.3z M20.4,13.5c-1.5-0.3-2.1-1.2-2-3.7c0-1.4,0.1-1.7,0.7-2.3
		c0.9-1,3.2-0.9,4,0.2c0.4,0.4,0.3,0.6-0.2,0.7c-0.4,0.1-0.4,0.1-0.8-0.2c-0.9-0.8-2.3-0.5-2.6,0.5c-0.1,0.5-0.1,2.5,0,2.9
		c0.4,1.3,2.5,1.3,2.8,0c0.2-0.8,0.2-0.9-0.8-0.9c-0.5,0-0.5,0-0.5-0.4c0-0.4,0-0.4,1.1-0.4c1.5,0,1.4-0.1,1.4,1
		c-0.1,1.3-0.5,2-1.3,2.4C21.8,13.5,21,13.6,20.4,13.5z"/>
</g>
</svg>
