<svg width="512" height="512" xmlns="http://www.w3.org/2000/svg" version="1.1">
 <title id="title833">Semantic Scholar</title>
 <g>
  <title>Layer 1</title>
  <ellipse stroke-width="0" ry="255.99999" rx="255.99999" id="svg_1" cy="256" cx="256" fill="#dc3545"/>
  <path stroke-width="0.08682" fill="white" d="m339.38139,133.52388c12.30744,27.56028 17.29656,56.82894 21.9629,86.17421c-0.85732,0.24321 -1.71296,0.48853 -2.57031,0.73342c-0.61706,-1.71634 -1.34422,-3.4017 -1.83401,-5.15488c-3.53481,-12.63647 -7.09894,-25.26541 -10.48222,-37.94332c-1.21692,-4.56086 -4.08784,-6.83104 -8.19365,-9.0648c-6.03023,-3.27947 -11.72845,-7.50795 -16.72552,-12.22455c-3.18909,-3.0082 -5.91722,-4.84259 -10.44123,-4.79488c-30.11848,0.31858 -60.23988,0.34913 -90.35708,0.62626c-2.00729,0.01998 -4.4918,0.76105 -5.91258,2.07594c-5.47933,5.07032 -10.6158,10.50987 -17.37023,17.31203c17.81564,43.38244 26.77327,90.66601 22.92741,140.9335c-8.55325,-5.47639 -15.17499,-9.80869 -15.56807,-21.28349c-1.9671,-57.35096 -19.65883,-109.21675 -56.61921,-153.8471c-0.83137,-1.00427 -1.24456,-2.35474 -1.85408,-3.54278l193.03789,0l0,0.00042zm-223.79013,22.11445c8.57794,0 17.16048,-0.13606 25.73089,0.11637c1.70086,0.04898 4.07987,1.12985 4.92968,2.49246c25.63128,41.18092 45.61325,84.43067 48.20202,133.91408c0.01206,0.19592 -0.19144,0.40271 -0.92307,1.84026c-15.31733,-52.36017 -42.95085,-96.69204 -78.49338,-136.42621c0.18539,-0.64468 0.3688,-1.29061 0.55425,-1.93655l-0.00041,-0.00041zm-27.59086,36.02645c12.25385,-0.44542 22.61848,-0.8925 32.98436,-1.08548c1.04405,-0.01998 2.27645,1.36094 3.15054,2.33296c20.21933,22.49121 38.56914,46.2546 49.87982,74.67514c2.15255,5.40564 3.62526,11.08255 5.41195,16.63388c-23.4281,-36.86831 -56.02981,-64.43779 -91.42707,-92.55692l0.00041,0.00042zm131.7402,186.81137c-21.3262,-33.9154 -41.86704,-66.58283 -62.40914,-99.25027c0.25117,-0.32317 0.50234,-0.64467 0.75308,-0.96743c1.72222,1.38689 38.35649,30.76314 54.80953,44.23685c4.58347,3.75378 8.04671,3.68637 12.81396,-0.18544c55.94397,-45.44498 118.37027,-79.84217 184.65292,-107.57994c3.5382,-1.48024 7.2078,-2.65321 10.82677,-3.94047c0.80376,-0.28467 1.65353,-0.44248 2.81229,-0.14986c-76.97042,44.70068 -150.40225,93.64534 -204.25983,167.83697l0.00043,-0.00041z" id="path2" />
 </g>
</svg>